<?xml version="1.0" encoding="UTF-8"?>
<svg id="Livello_1" data-name="Livello 1" xmlns="http://www.w3.org/2000/svg" viewBox="0 0 655.8 138.4">
  <defs>
    <style>
      .cls-1 {
        fill: #004559;
      }

      .cls-2 {
        fill: #e83a4e;
      }
    </style>
  </defs>
  <polygon id="polygon4" class="cls-2" points="558.6 95.3 603.8 137.9 589.3 95.3 581.5 72.4 558.6 95.3"/>
  <polygon id="polygon6" class="cls-2" points="580.5 69.5 558 3.2 558 92 580.5 69.5"/>
  <polygon id="polygon8" class="cls-2" points="582.7 67.3 604.9 45.1 559.8 0 582.7 67.3"/>
  <polygon id="polygon10" class="cls-1" points="583.7 70.2 592.3 95.3 606.9 138.4 621.5 95.3 630.1 70.2 606.9 47 583.7 70.2"/>
  <polygon id="polygon12" class="cls-2" points="655.8 3.2 633.3 69.5 655.8 92 655.8 3.2"/>
  <polygon id="polygon14" class="cls-2" points="655.2 95.3 655.2 95.3 632.3 72.4 624.5 95.3 610 137.9 655.2 95.3"/>
  <polygon id="polygon16" class="cls-2" points="631.1 67.3 654 0 608.9 45.1 631.1 67.3"/>
  <g id="svgGroup">
    <path id="_0" data-name="0" class="cls-1" d="M32.2,121.1h-4.1c-2.7,0-5.5-.2-8.2-.8-5.1-1.1-9.4-3.2-12.6-6.4-2.9-2.9-5-6.5-6-10.4-.7-2.5-1.1-5.2-1.3-8.2V61.8c0-2.7,.2-5.5,.8-8.2,.7-3.3,1.9-6.2,3.5-8.7,.9-1.4,1.9-2.6,3.1-3.7,2.9-2.8,6.5-4.8,10.4-5.8,3.1-.9,6.6-1.3,10.5-1.3h39.4c.5,0,1,.1,1.5,.2,1.2,.3,2,1.2,2.2,2.5,.1,.3,.1,.6,.1,.9V117.6c0,.5-.1,1-.2,1.4-.3,1.1-1.1,1.7-2.2,2-.4,.1-.9,.2-1.4,.1h-14.3c-1.9,0-3-.8-3.4-2.3-.1-.4-.2-.9-.2-1.3v-5.7h-.7c-1.2,2.9-3.4,5.3-6.2,6.7-.1,.1-.3,.1-.4,.2-3.4,1.6-6.7,2.4-10.3,2.4h0Zm17.5-31.8V54.6c0-1.2-.7-1.9-2-1.9H31.7c-.9,0-1.8,.1-2.7,.2-2.3,.3-3.9,1-5,2.1-.6,.6-1,1.4-1.4,2.2-.5,1.3-.8,3-.9,4.9v30.1c0,3.3,.6,5.7,1.8,7.3,.1,.2,.3,.3,.4,.5,.6,.6,1.4,1.1,2.2,1.4,1.3,.5,2.9,.8,4.8,.9h7c1.7,0,3.3-.2,4.9-.7,4.5-1.5,6.8-5.5,6.9-11.9v-.4Z" vector-effect="non-scaling-stroke"/>
    <path id="_1" data-name="1" class="cls-1" d="M121.5,121.1h-5.6c-6.3,0-11.5-1.2-15.6-3.7-1.6-.9-3-2.1-4.3-3.4-2.4-2.6-4.2-5.7-5.2-9.1-1.1-3.4-1.6-7.2-1.6-11.6V37.6c0-1.9,.8-3,2.3-3.4,.4-.1,.9-.2,1.3-.2h14.5c1.9,0,3,.8,3.4,2.3,.1,.4,.2,.9,.2,1.3v54.6c0,.9,.1,1.8,.2,2.7,.3,2.3,1,4,2.1,5.1,.7,.7,1.5,1.2,2.4,1.5,1.4,.5,3.1,.8,5.2,.8h6.3c1.6,0,3.3-.2,4.9-.7,4.5-1.5,6.8-5.5,6.9-11.9V37.6c0-1.9,.8-3,2.3-3.4,.4-.1,.9-.2,1.3-.2h14.3c.5,0,1,.1,1.5,.2,1.2,.3,2,1.2,2.2,2.5,.1,.3,.1,.6,.1,.9V117.5c0,.5-.1,1-.2,1.4-.3,1.1-1.1,1.7-2.2,2-.4,.1-.9,.2-1.4,.1h-14.3c-1.9,0-3-.8-3.4-2.3-.1-.4-.2-.9-.2-1.3v-5.6h-.7c-1.2,2.9-3.4,5.3-6.2,6.7-.1,.1-.3,.1-.4,.2-3.2,1.6-6.5,2.4-10.1,2.4h0Z" vector-effect="non-scaling-stroke"/>
    <path id="_2" data-name="2" class="cls-1" d="M181.3,52.8h-6.8c-1.1,0-1.9-.1-2.4-.4-.1-.1-.3-.2-.4-.3-.2-.2-.3-.4-.4-.6-.2-.4-.3-.9-.3-1.5v-12.4c0-1.9,.8-3,2.3-3.4,.4-.1,.9-.2,1.3-.2h6.8c.3,0,.5,0,.7-.1,.6-.2,.9-.5,1.1-1.1,.1-.2,.1-.5,.1-.7V15.9c0-.5,.1-1,.2-1.4,.3-1.1,1.1-1.7,2.2-2,.4-.1,.9-.2,1.4-.1h14.3c1.9,0,3,.8,3.4,2.3,.1,.4,.2,.9,.2,1.3v16.2c0,1.2,.7,1.9,2,1.9h13.3c1.9,0,3,.8,3.4,2.3,.1,.4,.2,.9,.2,1.3v11.8c0,.3,0,.6-.1,.9-.1,.7-.3,1.2-.6,1.6,0,.1-.1,.1-.2,.2-.2,.2-.4,.3-.7,.4-.5,.2-1.2,.3-2.1,.3h-13.3c-1.4,0-2,.6-2,1.9v37.7c0,.9,.1,1.8,.2,2.7,.3,2.2,1.1,3.8,2.2,4.9,.7,.6,1.5,1.1,2.3,1.4,1.4,.5,3.1,.8,5.1,.9h7.2c1.9,0,3,.8,3.4,2.3,.1,.4,.2,.9,.2,1.3v11.8c0,.3,0,.6-.1,.9-.1,.7-.3,1.2-.6,1.6,0,.1-.1,.1-.2,.2-.2,.2-.4,.3-.7,.4-.5,.2-1.2,.3-2.1,.3h-10.4c-9,0-16-2.4-20.9-7.2-4.7-4.5-7.1-10.9-7.4-19V54.7c0-.3,0-.5-.1-.7-.2-.6-.5-.9-1.1-1.1-.1-.1-.4-.1-.6-.1h0Z" vector-effect="non-scaling-stroke"/>
    <path id="_3" data-name="3" class="cls-1" d="M281.3,121.1h-15.2c-2.7,0-5.5-.2-8.2-.8-5.1-1.1-9.4-3.2-12.6-6.4-2.9-2.9-5-6.5-6-10.4-.7-2.5-1.1-5.2-1.3-8.2V61.8c0-2.7,.2-5.5,.8-8.2,.7-3.3,1.9-6.2,3.5-8.7,.9-1.4,1.9-2.6,3.1-3.7,2.9-2.8,6.5-4.8,10.4-5.8,3.1-.9,6.6-1.3,10.5-1.3h15.2c7.3,0,13.3,1.6,18,4.9,1,.7,1.9,1.5,2.8,2.3,5,4.8,7.4,11.7,7.4,20.6v31.4c0,8.9-2.5,15.7-7.4,20.6-3.1,3-6.9,5.1-11.1,6.1-2.5,.7-5.3,1-8.4,1.1h-1.5Zm-11.9-18.7h8.7c3.3,0,5.7-.6,7.3-1.8,.2-.1,.3-.3,.5-.4,.6-.6,1.1-1.4,1.4-2.2,.5-1.3,.8-2.9,.9-4.8v-30.8c0-.9,0-1.8-.2-2.7-.3-2.3-1-3.9-2.1-5-.6-.6-1.4-1-2.2-1.4-1.3-.5-3-.8-4.9-.9h-9.4c-3.6,0-6.2,.7-7.7,2.2-1.4,1.4-2.1,3.7-2.2,7v30.8c0,3.6,.7,6.2,2.2,7.7,1.4,1.4,3.7,2.1,7,2.2,.2,.1,.5,.1,.7,.1h0Z" vector-effect="non-scaling-stroke"/>
    <path id="_4" data-name="4" class="cls-2" d="M358.2,34h13.6c1.1,0,1.9,.2,2.5,.5l.3,.3c.5,.5,.7,1.3,.8,2.4v12c0,1.9-.8,3-2.3,3.4-.4,.1-.9,.2-1.3,.2h-13.7c-.3,0-.5,0-.7,.1-.6,.2-.9,.5-1.1,1.1-.1,.2-.1,.5-.1,.7v62.8c0,.5-.1,1-.2,1.4-.3,1.1-1.1,1.7-2.2,2-.4,.1-.9,.2-1.4,.1h-14.3c-1.9,0-3-.8-3.4-2.3-.1-.4-.2-.9-.2-1.3V54.6c0-1.2-.7-1.9-2-1.9h-7.9c-1.9,0-3-.8-3.4-2.3-.1-.4-.2-.9-.2-1.3v-12.7c.1-.6,.2-1.1,.4-1.5,.1-.1,.2-.3,.3-.4,.2-.2,.4-.3,.6-.4,.4-.2,.9-.3,1.6-.3h8.5c1.4,0,2-.6,2-1.9v-3.2c0-2.7,.2-5.4,.7-8.1,1-5.2,3.1-9.3,6.3-12.6,4.2-4.2,10.1-6.6,17.7-7.1,1-.1,1.9-.1,2.9-.1h10.6c.6,.1,1.1,.2,1.5,.4,.1,.1,.3,.2,.4,.3,.5,.5,.7,1.4,.7,2.6V15.9c0,2-.8,3.2-2.5,3.5-.3,.1-.6,.1-.9,.1h-6.3c-.8,0-1.7,0-2.5,.1-1.8,.2-3.2,.7-4.2,1.5-.3,.2-.5,.4-.7,.7-.5,.6-.9,1.2-1.1,2-.5,1.3-.8,2.9-.8,4.8v3.2c0,.3,0,.5,.1,.7,.2,.6,.5,.9,1.1,1.1,.3,.4,.5,.4,.8,.4h0Z" vector-effect="non-scaling-stroke"/>
    <path id="_5" data-name="5" class="cls-2" d="M428.7,121.1h-15.2c-2.7,0-5.5-.2-8.2-.8-5.1-1.1-9.4-3.2-12.6-6.4-2.9-2.9-5-6.5-6-10.4-.7-2.5-1.1-5.2-1.3-8.2V61.8c0-2.7,.2-5.5,.8-8.2,.7-3.3,1.9-6.2,3.5-8.7,.9-1.4,1.9-2.6,3.1-3.7,2.9-2.8,6.5-4.8,10.4-5.8,3.1-.9,6.6-1.3,10.5-1.3h15.2c7.3,0,13.3,1.6,18,4.9,1,.7,1.9,1.5,2.8,2.3,5,4.8,7.4,11.7,7.4,20.6v31.4c0,8.9-2.5,15.7-7.4,20.6-3.1,3-6.9,5.1-11.1,6.1-2.5,.7-5.3,1-8.4,1.1h-1.5Zm-12-18.7h8.7c3.3,0,5.7-.6,7.3-1.8,.2-.1,.3-.3,.5-.4,.6-.6,1.1-1.4,1.4-2.2,.5-1.3,.8-2.9,.9-4.8v-30.8c0-.9,0-1.8-.2-2.7-.3-2.3-1-3.9-2.1-5-.6-.6-1.4-1-2.2-1.4-1.3-.5-3-.8-4.9-.9h-9.4c-3.6,0-6.2,.7-7.7,2.2-1.4,1.4-2.1,3.7-2.2,7v30.8c0,3.6,.7,6.2,2.2,7.7,1.4,1.4,3.7,2.1,7,2.2,.3,.1,.5,.1,.7,.1h0Z" vector-effect="non-scaling-stroke"/>
    <path id="_6" data-name="6" class="cls-2" d="M487.9,121.1h-17.2c-.3,0-.7,0-1-.1-2-.3-2.5-1.4-1.5-3.3,0-.1,.1-.1,.1-.2l21.5-40.8-21.5-39.1c-.1-.2-.2-.4-.3-.6-.7-2,0-3,2.2-3h17.6c.7,0,1.4,.1,2,.3,1.5,.4,2.6,1.4,3.2,3,0,.1,.1,.2,.1,.3l10.8,26h.7l9.4-26c.8-2.4,2.6-3.6,5.3-3.6h17.1c3,0,3.7,1.2,2.2,3.6l-20.5,39.1,22,40.8c.3,.6,.5,1.1,.5,1.6,0,.3-.1,.6-.2,.9-.2,.4-.6,.7-1,.8-.2,.1-.5,.1-.8,.2h-18.1c-2.4,0-4.1-1.2-5.1-3.6l-10.8-26.1h-.8l-10.8,26.1c-.2,.7-.6,1.3-1,1.9-.7,.9-1.7,1.4-2.9,1.6-.3,.1-.7,.2-1.2,.2h0Z" vector-effect="non-scaling-stroke"/>
  </g>
</svg>